<svg viewBox="0 0 153 151" fill="none" xmlns="http://www.w3.org/2000/svg">
<path d="M93.3366 150.633H58.7924C43.4046 150.633 29.1607 141.728 22.4089 127.91L4.8676 96.9999C-1.61505 83.4963 -1.61505 68.0187 4.8676 54.5151L5.09191 54.0664L22.4089 23.6047C29.1383 9.78706 43.4046 0.881836 58.77 0.881836H93.3142C108.702 0.881836 122.946 9.78706 129.698 23.6047L147.239 54.5151C153.722 68.0187 153.722 83.4963 147.239 96.9999L147.015 97.4485L129.698 127.91C122.946 141.728 108.702 150.633 93.3142 150.633H93.3366ZM17.8105 90.5173L35.3517 121.405C39.6585 130.355 48.8554 136.165 58.7924 136.165H93.3366C103.274 136.165 112.471 130.378 116.777 121.405L117.002 120.957L134.296 90.5173C138.715 81.1186 138.715 70.3964 134.296 60.9977L116.755 30.1098C112.448 21.1597 103.251 15.35 93.3142 15.35H58.77C48.8329 15.35 39.6361 21.1373 35.3293 30.1098L35.105 30.5584L17.8105 60.9977C13.3691 70.3964 13.3691 81.1186 17.8105 90.5173Z"/>
<path d="M112.314 65.7983L102.534 48.5935C99.438 42.1332 92.9105 38.0283 85.7325 38.0283H66.3518C59.1738 38.0283 52.6463 42.1332 49.5508 48.5935L39.7707 65.7983C38.2679 68.9386 37.5052 72.3482 37.4603 75.7578H114.602C114.579 72.3482 113.816 68.9386 112.291 65.7983H112.314ZM63.346 61.9176C60.901 61.9176 58.9271 59.9437 58.9271 57.4987C58.9271 55.0537 60.901 53.0797 63.346 53.0797C65.791 53.0797 67.765 55.0537 67.765 57.4987C67.765 59.9437 65.791 61.9176 63.346 61.9176ZM88.7831 61.9176C86.3381 61.9176 84.3642 59.9437 84.3642 57.4987C84.3642 55.0537 86.3381 53.0797 88.7831 53.0797C91.2281 53.0797 93.2021 55.0537 93.2021 57.4987C93.2021 59.9437 91.2281 61.9176 88.7831 61.9176Z"/>
<path d="M64.7368 40.4726C64.7368 40.4726 66.9575 37.3995 61.4169 34.3264C55.8764 31.2534 59.1962 23.8286 64.7368 27.3279C70.2773 30.8272 69.7165 39.5978 69.7165 39.5978"/>
<path d="M87.3699 40.4726C87.3699 40.4726 85.1492 37.3995 90.6897 34.3264C96.2303 31.2534 92.9104 23.8286 87.3699 27.3279C81.8294 30.8272 82.3902 39.5978 82.3902 39.5978"/>
<path d="M39.2323 84.8428C39.4118 85.269 39.5912 85.6952 39.7931 86.0989L44.3691 94.1518H107.76L112.336 86.0989C112.538 85.6727 112.717 85.269 112.897 84.8428H39.2323Z"/>
<path d="M49.5731 103.304C52.6462 109.719 59.1064 113.802 66.2171 113.869L76.0644 123.717L85.9118 113.869C93.0225 113.802 99.4827 109.719 102.556 103.304V103.237H49.5507V103.304H49.5731Z"/>
</svg>
