<svg viewBox="0 0 744 106" fill="none" xmlns="http://www.w3.org/2000/svg">
<path d="M0.357788 3.83447H23.148V34.6102H52.3984V3.83447H75.1886V86.0676H52.3984V54.8208H23.148V86.0676H0.357788V3.83447Z"/>
<path d="M82.9498 54.5739V54.3272C82.9498 36.2475 97.7545 21.084 118.189 21.084C138.624 21.084 153.205 36.0008 153.205 54.1028V54.3272C153.205 72.4068 138.4 87.5703 117.965 87.5703C97.5302 87.5703 82.9498 72.6535 82.9498 54.5515V54.5739ZM131.469 54.5739V54.3272C131.469 46.5659 125.838 39.9936 117.965 39.9936C110.092 39.9936 104.686 46.4538 104.686 54.0804V54.3047C104.686 62.066 110.316 68.6383 118.189 68.6383C126.063 68.6383 131.469 62.1781 131.469 54.5515V54.5739Z"/>
<path d="M159.665 22.4972H181.984V31.4248C186.089 26.131 191.966 21.084 201.006 21.084C214.509 21.084 222.607 30.0116 222.607 44.4574V86.045H200.288V51.6354C200.288 44.7041 196.654 40.9357 191.36 40.9357C186.067 40.9357 181.962 44.7041 181.962 51.6354V86.045H159.642V22.4972H159.665Z"/>
<path d="M228.641 54.5739V54.3272C228.641 35.7765 241.92 21.084 260.718 21.084C282.678 21.084 292.795 37.1672 292.795 55.8525C292.795 57.2657 292.795 58.9031 292.682 60.4285H250.153C251.925 67.3597 256.972 70.8815 263.903 70.8815C269.197 70.8815 273.414 68.8851 277.99 64.4212L290.327 74.6499C284.226 82.4111 275.41 87.5703 262.714 87.5703C242.75 87.5703 228.641 74.291 228.641 54.5515V54.5739ZM271.866 49.0558C271.036 42.0124 266.931 37.5486 260.83 37.5486C254.729 37.5486 250.96 42.1245 249.794 49.0558H271.889H271.866Z"/>
<path d="M294.769 99.6841L301.7 84.0495C305.222 86.1581 308.99 87.4591 311.457 87.4591C313.701 87.4591 315.226 86.8759 316.617 84.8795L291.718 22.498H315.091L327.787 60.7883L339.766 22.498H362.668L339.407 84.5206C333.889 99.3252 327.9 105.202 315.203 105.202C307.33 105.202 300.646 102.959 294.769 99.6841Z"/>
<path d="M360.918 54.5745V54.3278C360.918 36.3603 374.893 21.1968 394.991 21.1968C408.024 21.1968 416.727 26.827 422.133 35.4182L406.97 46.7012C403.919 42.4616 400.51 39.9942 395.104 39.9942C387.948 39.9942 382.654 46.3423 382.654 54.0811V54.3054C382.654 62.5377 387.813 68.7511 395.35 68.7511C400.644 68.7511 404.031 66.2837 407.575 62.1788L422.492 72.9906C416.615 81.694 408.159 87.5485 394.184 87.5485C375.028 87.5485 360.941 72.5196 360.941 54.5297L360.918 54.5745Z"/>
<path d="M427.876 0.312988H450.195V86.0678H427.876V0.312988Z"/>
<path d="M459.257 64.0857V22.498H481.576V56.9076C481.576 63.8389 485.21 67.6074 490.616 67.6074C496.022 67.6074 499.903 63.8389 499.903 56.9076V22.498H522.222V86.0459H499.903V77.3426C495.798 82.6363 489.921 87.4366 480.881 87.4366C467.377 87.4366 459.257 78.509 459.257 64.0632V64.0857Z"/>
<path d="M526.439 78.0826L534.783 64.579C542.074 69.4017 550.059 71.8691 556.631 71.8691C560.512 71.8691 562.262 70.7027 562.262 68.4596V68.2352C562.262 65.7678 558.74 64.7135 552.033 62.8293C539.472 59.5319 529.49 55.3148 529.49 42.5066V42.2598C529.49 28.7562 540.302 21.2417 554.972 21.2417C564.258 21.2417 573.881 23.9335 581.171 28.644L573.545 42.7309C566.972 39.097 559.794 36.8539 554.747 36.8539C551.338 36.8539 549.588 38.1549 549.588 39.9045V40.1513C549.588 42.6187 553.222 43.7851 559.929 45.7815C572.49 49.3032 582.472 53.6549 582.472 65.9921V66.2389C582.472 80.2136 572.019 87.5037 556.519 87.5037C545.82 87.5037 535.254 84.4531 526.439 78.105V78.0826Z"/>
<path d="M591.422 66.3281V40.4872H583.908V22.5198H591.422V6.43652H613.742V22.5198H628.546V40.4872H613.742V61.9764C613.742 66.4402 615.738 68.3245 619.843 68.3245C622.781 68.3245 625.608 67.4945 628.299 66.2159V83.7123C624.307 85.933 619.013 87.3462 612.799 87.3462C599.408 87.3462 591.422 81.4692 591.422 66.3281Z"/>
<path d="M630.901 54.5739V54.3272C630.901 35.7765 644.181 21.084 662.978 21.084C684.938 21.084 695.055 37.1672 695.055 55.8525C695.055 57.2657 695.055 58.9031 694.943 60.4285H652.413C654.185 67.3597 659.232 70.8815 666.163 70.8815C671.457 70.8815 675.674 68.8851 680.25 64.4212L692.587 74.6499C686.486 82.4111 677.671 87.5703 664.975 87.5703C645.011 87.5703 630.901 74.291 630.901 54.5515V54.5739ZM674.127 49.0558C673.297 42.0124 669.192 37.5486 663.09 37.5486C656.989 37.5486 653.221 42.1245 652.054 49.0558H674.149H674.127Z"/>
<path d="M701.605 22.4972H723.924V35.3054C727.558 26.6245 733.435 20.9718 744 21.4429V44.9284H742.116C730.496 44.9284 723.901 51.6354 723.901 66.3055V86.045H701.582V22.4972H701.605Z"/>
</svg>
